<?xml version="1.0" standalone="no"?>
<!DOCTYPE svg PUBLIC "-//W3C//DTD SVG 20010904//EN"
 "http://www.w3.org/TR/2001/REC-SVG-20010904/DTD/svg10.dtd">
<svg version="1.0" xmlns="http://www.w3.org/2000/svg"
     width="260.000000pt" height="260.000000pt" viewBox="0 0 260.000000 260.000000"
     preserveAspectRatio="xMidYMid meet">
<metadata>
Created by potrace 1.11, written by Peter Selinger 2001-2013
</metadata>
    <g transform="translate(0.000000,260.000000) scale(0.100000,-0.100000)"
       fill="#037be3" stroke="none">
        <path d="M1048 2434 c-2 -1 -28 -5 -58 -8 -30 -3 -70 -10 -87 -15 -18 -5 -33
-8 -33 -6 0 9 -173 -56 -245 -93 -325 -164 -539 -454 -609 -827 -14 -76 -16
-318 -3 -370 3 -11 10 -42 17 -70 69 -311 298 -607 580 -750 124 -62 273 -107
410 -122 30 -3 278 -6 550 -6 l495 0 266 178 266 179 -36 26 c-20 14 -141 97
-269 183 l-232 157 -480 0 c-264 0 -480 -3 -480 -7 0 -5 13 -22 28 -39 15 -17
39 -47 53 -65 15 -19 63 -80 108 -136 44 -57 81 -105 81 -108 0 -6 -70 -24
-118 -31 -252 -38 -497 43 -680 224 -124 122 -192 246 -227 413 -14 67 -22
260 -11 277 2 4 7 25 10 46 19 121 96 270 196 379 106 115 220 186 377 233
113 34 297 39 408 10 164 -42 333 -152 441 -286 78 -96 145 -239 160 -338 3
-21 7 -43 10 -51 7 -20 6 -170 -1 -216 -7 -41 -31 -144 -41 -168 -4 -11 13
-13 79 -14 73 0 89 -4 128 -28 24 -16 46 -31 49 -35 7 -10 51 -32 55 -28 4 4
40 143 51 193 14 68 13 291 -1 372 -97 542 -548 933 -1092 947 -62 2 -114 2
-115 0z"/>
        <path d="M799 1730 c-87 -25 -100 -57 -98 -239 0 -83 6 -148 13 -162 16 -34
74 -69 111 -69 38 0 95 36 112 70 19 38 18 302 -2 340 -24 46 -87 74 -136 60z"/>
        <path d="M1272 1729 c-40 -8 -71 -35 -87 -74 -9 -25 -12 -170 -6 -302 1 -21
51 -82 68 -84 4 0 21 -3 36 -5 43 -7 94 14 118 48 20 27 22 44 24 162 0 72 -2
146 -6 165 -14 65 -79 105 -147 90z"/>
</g>
</svg>
